<svg width="74" height="78" viewBox="0 0 74 78" fill="none" xmlns="http://www.w3.org/2000/svg">
<path d="M22.3146 13.5635C21.6898 13.5635 21.1831 14.1084 21.1831 14.7808C21.1831 16.2575 20.0664 17.459 18.6939 17.459C17.3214 17.459 16.2047 16.2575 16.2047 14.7808C16.2047 13.3041 17.3214 12.1027 18.6939 12.1027C19.3187 12.1027 19.8254 11.5577 19.8254 10.8853C19.8254 10.2129 19.3189 9.66797 18.6939 9.66797C16.0736 9.66797 13.9419 11.9616 13.9419 14.7807C13.9419 17.5997 16.0737 19.8934 18.6939 19.8934C21.3141 19.8934 23.4459 17.5997 23.4459 14.7807C23.4461 14.1084 22.9394 13.5635 22.3146 13.5635Z" fill="white"/>
<path d="M22.3146 27.8467C21.6898 27.8467 21.1831 28.3916 21.1831 29.064C21.1831 30.5407 20.0664 31.7422 18.6939 31.7422C17.3214 31.7422 16.2047 30.5407 16.2047 29.064C16.2047 27.5873 17.3214 26.3859 18.6939 26.3859C19.3187 26.3859 19.8254 25.8409 19.8254 25.1685C19.8254 24.4962 19.3189 23.9512 18.6939 23.9512C16.0736 23.9512 13.9419 26.2448 13.9419 29.0639C13.9419 31.8829 16.0737 34.1766 18.6939 34.1766C21.3141 34.1766 23.4459 31.8829 23.4459 29.0639C23.4461 28.3918 22.9394 27.8467 22.3146 27.8467Z" fill="white"/>
<path d="M40.6865 31.3079H32.2384C31.6136 31.3079 31.1069 31.8528 31.1069 32.5252C31.1069 33.1976 31.6135 33.7426 32.2384 33.7426H40.6865C41.3113 33.7426 41.818 33.1976 41.818 32.5252C41.818 31.8528 41.3115 31.3079 40.6865 31.3079Z" fill="white"/>
<path d="M40.6865 26.1138H32.2384C31.6136 26.1138 31.1069 26.6588 31.1069 27.3311C31.1069 28.0035 31.6135 28.5485 32.2384 28.5485H40.6865C41.3113 28.5485 41.818 28.0035 41.818 27.3311C41.818 26.6588 41.3115 26.1138 40.6865 26.1138Z" fill="white"/>
<path d="M38.2728 45.5908H32.2384C31.6136 45.5908 31.1069 46.1358 31.1069 46.8082C31.1069 47.4805 31.6135 48.0255 32.2384 48.0255H38.2728C38.8976 48.0255 39.4043 47.4805 39.4043 46.8082C39.4043 46.1358 38.8976 45.5908 38.2728 45.5908Z" fill="white"/>
<path d="M40.6865 40.3972H32.2384C31.6136 40.3972 31.1069 40.9422 31.1069 41.6146C31.1069 42.2869 31.6135 42.8319 32.2384 42.8319H40.6865C41.3113 42.8319 41.818 42.2869 41.818 41.6146C41.818 40.9422 41.3115 40.3972 40.6865 40.3972Z" fill="white"/>
<path d="M51.5483 17.0247H32.2384C31.6136 17.0247 31.1069 17.5696 31.1069 18.242C31.1069 18.9144 31.6135 19.4594 32.2384 19.4594H51.5482C52.173 19.4594 52.6797 18.9144 52.6797 18.242C52.6797 17.5696 52.1732 17.0247 51.5483 17.0247Z" fill="white"/>
<path d="M46.7208 11.8308H32.2384C31.6136 11.8308 31.1069 12.3758 31.1069 13.0482C31.1069 13.7206 31.6135 14.2656 32.2384 14.2656H46.7208C47.3456 14.2656 47.8523 13.7206 47.8523 13.0482C47.8523 12.3758 47.3458 11.8308 46.7208 11.8308Z" fill="white"/>
<path d="M22.3146 42.1297C21.6898 42.1297 21.1831 42.6746 21.1831 43.347C21.1831 44.8237 20.0664 46.0252 18.6939 46.0252C17.3214 46.0252 16.2047 44.8237 16.2047 43.347C16.2047 41.8703 17.3214 40.6689 18.6939 40.6689C19.3187 40.6689 19.8254 40.1239 19.8254 39.4515C19.8254 38.7791 19.3189 38.2341 18.6939 38.2341C16.0736 38.2341 13.9419 40.5278 13.9419 43.3469C13.9419 46.1659 16.0737 48.4596 18.6939 48.4596C21.3141 48.4596 23.4459 46.1659 23.4459 43.3469C23.4461 42.6746 22.9394 42.1297 22.3146 42.1297Z" fill="white"/>
<path d="M58.487 0H4.65125C2.08667 0 0 1.71101 0 3.81425V58.3499C0 60.4531 2.08648 62.1641 4.65125 62.1641H31.5692C32.389 62.1641 33.0537 61.6191 33.0537 60.9468C33.0537 60.2745 32.3891 59.7294 31.5692 59.7294H4.65125C3.72356 59.7294 2.96881 59.1105 2.96881 58.3497V3.81425C2.96881 3.0535 3.72356 2.43457 4.65125 2.43457H58.487C59.4147 2.43457 60.1694 3.0535 60.1694 3.81425V44.067C60.1694 44.7392 60.834 45.2843 61.6539 45.2843C62.4737 45.2843 63.1384 44.7393 63.1384 44.067V3.81425C63.1382 1.71101 61.0518 0 58.487 0Z" fill="white"/>
<path d="M70.2756 49.3647C69.224 49.2519 68.1729 49.5726 67.3411 50.2521C66.6785 49.0559 65.5485 48.2072 64.2412 48.0663C63.1893 47.9536 62.1384 48.2743 61.3067 48.9537C60.6441 47.7574 59.5142 46.9088 58.2068 46.7679C57.4038 46.6816 56.6019 46.848 55.8972 47.2339V31.7315C55.8972 30.4728 55.3995 29.2662 54.5314 28.4212C53.6641 27.5769 52.4954 27.1648 51.3247 27.2909C49.236 27.5159 47.6 29.5478 47.6 31.9167V47.4583L44.274 51.0367C42.5066 52.9383 41.7931 55.6363 42.3657 58.2542L44.8908 69.8002C45.9139 74.4788 49.7483 77.7462 54.2155 77.7462H64.4206C69.7027 77.7462 74.0001 73.1228 74.0001 67.4396V53.9909C74.0003 51.6217 72.3642 49.5898 70.2756 49.3647ZM71.7373 67.4393C71.7373 71.7798 68.4551 75.3112 64.4207 75.3112H54.2157C50.8037 75.3112 47.8749 72.8156 47.0935 69.2422L44.5684 57.6961C44.1766 55.9051 44.6648 54.059 45.8741 52.7579L47.6 50.901V55.1038C47.6 55.776 48.1065 56.3212 48.7315 56.3212C49.3564 56.3212 49.8629 55.7762 49.8629 55.1038V31.9166C49.8629 30.783 50.604 29.8152 51.5504 29.7134C52.0939 29.6547 52.6137 29.8372 53.0134 30.2265C53.4081 30.6109 53.6345 31.1595 53.6345 31.7316V53.1564C53.6345 53.8286 54.141 54.3737 54.766 54.3737C55.3909 54.3737 55.8975 53.8288 55.8975 53.1564V51.2086C55.8975 50.6365 56.1237 50.0878 56.5186 49.7035C56.9186 49.3142 57.4381 49.1315 57.9816 49.1904C58.9278 49.2923 59.669 50.2602 59.669 51.3937V54.4545C59.669 55.1267 60.1755 55.6719 60.8005 55.6719C61.4253 55.6719 61.932 55.1269 61.932 54.4545V52.5068C61.932 51.9346 62.1582 51.386 62.5531 51.0017C62.9531 50.6123 63.4727 50.4298 64.0161 50.4886C64.9623 50.5905 65.7035 51.5583 65.7035 52.6919V55.7528C65.7035 56.425 66.21 56.9702 66.835 56.9702C67.4598 56.9702 67.9665 56.4252 67.9665 55.7528V53.8051C67.9665 53.2329 68.1927 52.6843 68.5876 52.3C68.9876 51.9108 69.5068 51.7279 70.0506 51.787C70.9968 51.8888 71.738 52.8566 71.738 53.9902V67.4393H71.7373Z" fill="white"/>
</svg>
